<?xml version="1.0" encoding="UTF-8"?>
<svg xmlns="http://www.w3.org/2000/svg" version="1.1" height="80" width="80">
 <defs>
  <linearGradient id="hicg_overlay_grad" gradientUnits="userSpaceOnUse" x1="39.9995" y1="5.1816" x2="39.9995" y2="58.8019">
   <stop offset="0" style="stop-color:#FFFFFF"/>
   <stop offset="1" style="stop-color:#000000"/>
  </linearGradient>
  <filter id="hicg_drop_shadow">
    <feOffset in="SourceAlpha" dx="0" dy="4"/>
    <feGaussianBlur stdDeviation="4"/>
	<feColorMatrix type="matrix" values="1 0 0 0 0  0 1 0 0 0  0 0 1 0 0  0 0 0 0.5 0" result="shadow"/>
    <feBlend in="SourceGraphic" in2="shadow" mode="normal"/>
  </filter>
 </defs>
 <g>
  <path id="hicg_background" fill="#82ceda" d="M79,40c0,28.893-10.105,39-39,39S1,68.893,1,40C1,11.106,11.105,1,40,1S79,11.106,79,40z"/>
  <path id="hicg_highlight" fill="#fff" opacity="0.25" d="M39.999,1C11.105,1,1,11.106,1,40c0,28.893,10.105,39,38.999,39   C68.896,79,79,68.893,79,40C79,11.106,68.896,1,39.999,1z M39.999,78.025C11.57,78.025,1.976,68.43,1.976,40   c0-28.429,9.595-38.024,38.023-38.024c28.43,0,38.024,9.596,38.024,38.024C78.023,68.43,68.429,78.025,39.999,78.025z"/>
  <path id="hicg_overlay" opacity="0.4" fill="url(#hicg_overlay_grad)" d="M78.977,40c0,28.893-10.1,39-38.977,39S1.023,68.893,1.023,40c0-28.894,10.1-39,38.977-39S78.977,11.106,78.977,40z"/>
 </g>
<g xmlns:rdf="http://www.w3.org/1999/02/22-rdf-syntax-ns#" xmlns:cc="http://creativecommons.org/ns#" xmlns:dc="http://purl.org/dc/elements/1.1/" xmlns:inkscape="http://www.inkscape.org/namespaces/inkscape" xmlns:sodipodi="http://sodipodi.sourceforge.net/DTD/sodipodi-0.dtd" transform="translate(13, 18.6567) scale(0.0950704)" filter="url(#hicg_drop_shadow)"><metadata xmlns="http://www.w3.org/2000/svg" xmlns:rdf="http://www.w3.org/1999/02/22-rdf-syntax-ns#" xmlns:cc="http://creativecommons.org/ns#" xmlns:dc="http://purl.org/dc/elements/1.1/" id="metadata203"><rdf:RDF><cc:Work rdf:about=""><dc:format>image/svg+xml</dc:format><dc:type rdf:resource="http://purl.org/dc/dcmitype/StillImage"/></cc:Work></rdf:RDF></metadata><defs xmlns="http://www.w3.org/2000/svg" xmlns:inkscape="http://www.inkscape.org/namespaces/inkscape" id="defs201"><marker inkscape:stockid="Dot_m" orient="auto" refY="0" refX="0" id="Dot_m" style="overflow:visible"><path id="path4204" d="M -2.5,-1 C -2.5,1.76 -4.74,4 -7.5,4 C -10.26,4 -12.5,1.76 -12.5,-1 C -12.5,-3.76 -10.26,-6 -7.5,-6 C -4.74,-6 -2.5,-3.76 -2.5,-1 z " style="fill-rule:evenodd;stroke:#000000;stroke-width:1pt;marker-start:none;marker-end:none" transform="matrix(0.4, 0, 0, 0.4, 2.96, 0.4)"/></marker><marker inkscape:stockid="Arrow1Lend" orient="auto" refY="0" refX="0" id="Arrow1Lend" style="overflow:visible"><path id="path4142" d="M 0,0 L 5,-5 L -12.5,0 L 5,5 L 0,0 z " style="fill-rule:evenodd;stroke:#000000;stroke-width:1pt;marker-start:none" transform="matrix(-0.8, 0, 0, -0.8, -10, 0)"/></marker><marker inkscape:stockid="Arrow1Lstart" orient="auto" refY="0" refX="0" id="Arrow1Lstart" style="overflow:visible"><path id="path4139" d="M 0,0 L 5,-5 L -12.5,0 L 5,5 L 0,0 z " style="fill-rule:evenodd;stroke:#000000;stroke-width:1pt;marker-start:none" transform="matrix(0.8, 0, 0, 0.8, 10, 0)"/></marker></defs><sodipodi:namedview xmlns:sodipodi="http://sodipodi.sourceforge.net/DTD/sodipodi-0.dtd" xmlns:inkscape="http://www.inkscape.org/namespaces/inkscape" inkscape:window-height="993" inkscape:window-width="1139" inkscape:pageshadow="2" inkscape:pageopacity="0.0" guidetolerance="10.0" gridtolerance="10.0" objecttolerance="10.0" borderopacity="1.0" bordercolor="#666666" pagecolor="#ffffff" id="base" inkscape:zoom="0.7747431" inkscape:cx="541.81118" inkscape:cy="248.56279" inkscape:window-x="364" inkscape:window-y="74" inkscape:current-layer="Layer_1_1_" width="568.12px" height="449.63px" showgrid="false"/>
	<g xmlns="http://www.w3.org/2000/svg" xmlns:sodipodi="http://sodipodi.sourceforge.net/DTD/sodipodi-0.dtd" id="Layer_1" transform="translate(652.693, 148.831)">
		<g id="Layer_1_1_">
			
			
			
			
			
			
			
			
			
			
			
			
			
			
			
			
			
			
			
			
			
			
			
			
			
			
			
			
			
		








<flowRoot xml:space="preserve" id="flowRoot4342"><flowRegion id="flowRegion4344"><rect id="rect4346" width="53.632896" height="42.687408" x="142.29135" y="-115.14172"/></flowRegion><flowPara id="flowPara4348"/></flowRoot>
<path sodipodi:type="arc" style="fill:none;fill-opacity:1;fill-rule:evenodd;stroke:#000000;stroke-width:2.42558265;stroke-linecap:butt;stroke-linejoin:round;stroke-miterlimit:4;stroke-dasharray:none;stroke-opacity:1" id="path3531" sodipodi:cx="113.11229" sodipodi:cy="147.91585" sodipodi:rx="55.240887" sodipodi:ry="47.349331" d="M 158.29007,120.66836 A 55.240887,47.349331 0 0 1 158.23378,175.23178" transform="matrix(0.997563, 0, 0, 0.963697, -644.302, -63.8128)" sodipodi:start="5.6700228" sodipodi:end="6.8981162" sodipodi:open="true"/><path d="M -147.08151,104.80322 L -638.35967,104.80322" id="path22" style="fill:#ffffff;stroke:#000000;stroke-width:2.30639744;stroke-miterlimit:4;stroke-dasharray:13.83838411, 13.83838411;stroke-dashoffset:0" sodipodi:nodetypes="cc"/><path d="M -234.11362,-69.77288 L -600.89842,105.06722" id="path114" style="fill:none;stroke:#fe0009;stroke-width:4.4727025;stroke-miterlimit:4;stroke-dasharray:none" sodipodi:nodetypes="cc"/><path d="M -233.93927,279.30159 L -600.28998,105.12418" id="path116" style="fill:none;stroke:#fe0009;stroke-width:4.4727025;stroke-miterlimit:4;stroke-dasharray:none" sodipodi:nodetypes="cc"/><text xml:space="preserve" style="font-size:55.90877914px;font-style:italic;font-variant:normal;font-weight:normal;font-stretch:normal;text-align:start;line-height:125%;writing-mode:lr-tb;text-anchor:start;fill:#000000;fill-opacity:1;stroke:none;stroke-width:1px;stroke-linecap:butt;stroke-linejoin:miter;stroke-opacity:1;font-family:Bitstream Vera Sans" x="-468.62479" y="85.93145" id="text3527" sodipodi:linespacing="125%"><tspan sodipodi:role="line" id="tspan3529" x="-468.62479" y="85.93145" style="font-size:36px;font-style:italic;font-family:DejaVu Serif;-inkscape-font-specification:DejaVu Serif Italic;font-weight:normal;font-stretch:normal;font-variant:normal">θ</tspan></text>


<text xml:space="preserve" style="font-size:40px;font-style:oblique;font-variant:normal;font-weight:normal;font-stretch:normal;text-align:start;line-height:100%;writing-mode:lr;text-anchor:start;fill:#000000;fill-opacity:1;stroke:none;stroke-width:1px;stroke-linecap:butt;stroke-linejoin:miter;stroke-opacity:1;font-family:DejaVu Sans;-inkscape-font-specification:DejaVu Sans Oblique" x="-636.19598" y="90.592598" id="text2168" sodipodi:linespacing="100%"><tspan sodipodi:role="line" id="tspan2170" x="-636.19598" y="90.592598" style="font-size:40px;font-family:DejaVu Sans;-inkscape-font-specification:DejaVu Sans Oblique;font-weight:normal;font-style:oblique;font-stretch:normal;font-variant:normal;text-anchor:start;text-align:start;writing-mode:lr;line-height:100%">F</tspan></text>


<path sodipodi:type="arc" style="fill:#000000;fill-opacity:1;fill-rule:evenodd;stroke:#000000;stroke-width:1.25;stroke-linecap:round;stroke-linejoin:round;stroke-miterlimit:4;stroke-dasharray:none;stroke-dashoffset:0;stroke-opacity:1" id="path2172" sodipodi:cx="56.964256" sodipodi:cy="173.92438" sodipodi:rx="3.9526219" sodipodi:ry="3.4876077" d="M 60.916878 173.92438 A 3.9526219 3.4876077 0 1 1  53.011634,173.92438 A 3.9526219 3.4876077 0 1 1  60.916878 173.92438 z" transform="matrix(1.47245, 0, 0, 1.67654, -684.168, -186.673)"/><path style="fill:#82ceda;fill-opacity:0.67027025;fill-rule:evenodd;stroke:#8e9296;stroke-width:4.78426313;stroke-linecap:butt;stroke-linejoin:round;stroke-miterlimit:4;stroke-dasharray:none;stroke-opacity:1" d="M -234.63228,-69.520129 C -253.72018,-15.000422 -264.15217,43.554419 -264.15217,104.51679 C -264.15217,165.6363 -253.70576,224.35685 -234.52129,278.9952 L -199.89643,278.9952 C -180.80874,224.47549 -170.37654,165.9205 -170.37654,104.95824 C -170.37654,43.853609 -180.83192,-14.893085 -200.00742,-69.520129 L -234.63228,-69.520129 z " id="path2183"/><g id="g3150" style="stroke:#000000;stroke-width:0.26735386;stroke-miterlimit:4;stroke-dasharray:none;stroke-opacity:1" transform="matrix(1.83614, 0, 0, 2.73953, -467.884, -432.922)"><path sodipodi:nodetypes="cs" style="fill:none;stroke:#000000;stroke-width:0.26735386;stroke-miterlimit:4;stroke-dasharray:none;stroke-opacity:1" id="path3152" d="M 136.50059,186.08506 C 136.50059,186.08506 136.50059,127.11706 136.50059,107.46107"/><path sodipodi:nodetypes="cc" style="fill:none;stroke:#000000;stroke-width:0.26735386;stroke-miterlimit:4;stroke-dasharray:none;stroke-opacity:1" id="path3154" d="M 136.48396,264.06644 L 136.48396,186.38373"/></g><g id="g3156" style="stroke:#000000;stroke-width:0.26735386;stroke-miterlimit:4;stroke-dasharray:none;stroke-opacity:1" transform="matrix(1.83614, 0, 0, 2.73953, -850.911, -432.922)"><path sodipodi:nodetypes="cs" style="fill:none;stroke:#000000;stroke-width:0.26735386;stroke-miterlimit:4;stroke-dasharray:none;stroke-opacity:1" id="path3158" d="M 136.50059,186.08506 C 136.50059,186.08506 136.50059,127.11706 136.50059,107.46107"/><path sodipodi:nodetypes="cc" style="fill:none;stroke:#000000;stroke-width:0.26735386;stroke-miterlimit:4;stroke-dasharray:none;stroke-opacity:1" id="path3160" d="M 136.48396,264.06644 L 136.48396,186.38373"/></g><path style="fill:none;fill-rule:evenodd;stroke:#000000;stroke-width:1.19924498;stroke-linecap:butt;stroke-linejoin:miter;marker-start:url(#Arrow1Lstart);marker-mid:url(#Dot_m);marker-end:url(#Arrow1Lend);stroke-miterlimit:4;stroke-dasharray:none;stroke-opacity:1" d="M -600.35648,-113.3731 L -218.35891,-113.3731" id="path3165"/><rect style="fill:#ffffff;fill-opacity:1;stroke:none;stroke-width:10;stroke-miterlimit:4;stroke-dasharray:none;stroke-opacity:1" id="rect6300" width="41.592857" height="42.687408" x="-430.15414" y="-134.7168"/><text xml:space="preserve" style="font-size:30px;font-style:italic;font-variant:normal;font-weight:normal;font-stretch:normal;text-align:start;line-height:100%;writing-mode:lr-tb;text-anchor:start;fill:#000000;fill-opacity:1;stroke:none;stroke-width:1px;stroke-linecap:butt;stroke-linejoin:miter;stroke-opacity:1;font-family:DejaVu Serif;-inkscape-font-specification:DejaVu Serif Italic" x="-413.24442" y="-98.17778" id="text4350" sodipodi:linespacing="100%"><tspan sodipodi:role="line" id="tspan4352" x="-413.24442" y="-98.17778" style="font-size:40px;font-style:italic;text-align:center;text-anchor:middle;fill:#000000;fill-opacity:1;stroke:none;stroke-opacity:1;font-family:DejaVu Serif;-inkscape-font-specification:DejaVu Serif Italic;font-weight:normal;font-stretch:normal;font-variant:normal">f</tspan></text>


<g id="g8240" style="stroke:#000000;stroke-width:0.26735386;stroke-miterlimit:4;stroke-dasharray:none;stroke-opacity:1" transform="matrix(0, 4.40378, -0.985351, 0, 4.01227, -670.647)"><path sodipodi:nodetypes="cs" style="fill:none;stroke:#000000;stroke-width:0.26735386;stroke-miterlimit:4;stroke-dasharray:none;stroke-opacity:1" id="path8242" d="M 136.50059,186.08506 C 136.50059,186.08506 136.50059,127.11706 136.50059,107.46107"/><path sodipodi:nodetypes="cc" style="fill:none;stroke:#000000;stroke-width:0.26735386;stroke-miterlimit:4;stroke-dasharray:none;stroke-opacity:1" id="path8244" d="M 136.48396,264.06644 L 136.48396,186.38373"/></g><g id="g8246" style="stroke:#000000;stroke-width:0.26735386;stroke-miterlimit:4;stroke-dasharray:none;stroke-opacity:1" transform="matrix(0, 4.40378, -0.985351, 0, 4.01227, -322.364)"><path sodipodi:nodetypes="cs" style="fill:none;stroke:#000000;stroke-width:0.26735386;stroke-miterlimit:4;stroke-dasharray:none;stroke-opacity:1" id="path8248" d="M 136.50059,186.08506 C 136.50059,186.08506 136.50059,127.11706 136.50059,107.46107"/><path sodipodi:nodetypes="cc" style="fill:none;stroke:#000000;stroke-width:0.26735386;stroke-miterlimit:4;stroke-dasharray:none;stroke-opacity:1" id="path8250" d="M 136.48396,264.06644 L 136.48396,186.38373"/></g><path style="fill:none;fill-rule:evenodd;stroke:#000000;stroke-width:0.95286596px;stroke-linecap:butt;stroke-linejoin:miter;marker-start:url(#Arrow1Lstart);marker-mid:url(#Dot_m);marker-end:url(#Arrow1Lend);stroke-opacity:1" d="M -115.95233,-69.418615 L -115.95233,277.79774" id="path8252"/><rect style="fill:#ffffff;fill-opacity:1;stroke:none;stroke-width:10;stroke-miterlimit:4;stroke-dasharray:none;stroke-opacity:1" id="rect8254" width="50.053902" height="42.756348" x="79.162605" y="94.574158" transform="matrix(0, 1, -1, 0, 0, 0)"/><text xml:space="preserve" style="font-size:30px;font-style:normal;font-variant:normal;font-weight:normal;font-stretch:normal;text-align:start;line-height:100%;writing-mode:lr-tb;text-anchor:start;fill:#000000;fill-opacity:1;stroke:none;stroke-width:1px;stroke-linecap:butt;stroke-linejoin:miter;stroke-opacity:1;font-family:Bitstream Vera Sans" x="-114.9953" y="118.99791" id="text9225" sodipodi:linespacing="100%"><tspan sodipodi:role="line" id="tspan9227" x="-114.9953" y="118.99791" style="font-size:40px;font-style:italic;text-align:center;text-anchor:middle;fill:#000000;fill-opacity:1;stroke:none;stroke-opacity:1;font-family:DejaVu Serif;-inkscape-font-specification:DejaVu Serif Italic;font-weight:normal;font-stretch:normal;font-variant:normal">D</tspan></text>



</g>
	</g>
</g></svg>